<?xml version="1.0" encoding="utf-8"?>
<!-- Generator: Adobe Illustrator 19.2.1, SVG Export Plug-In . SVG Version: 6.00 Build 0)  -->
<svg version="1.1" id="Layer_1" xmlns="http://www.w3.org/2000/svg" xmlns:xlink="http://www.w3.org/1999/xlink" x="0px" y="0px"
	 viewBox="0 0 40 44" style="enable-background:new 0 0 40 44;" xml:space="preserve">
<style type="text/css">
	.st0{clip-path:url(#SVGID_2_);fill:#E2231A;}
	.st1{clip-path:url(#SVGID_2_);fill:#00953A;}
	.st2{clip-path:url(#SVGID_2_);fill:#493728;}
</style>
<g>
	<defs>
		<rect id="SVGID_1_" width="40" height="44"/>
	</defs>
	<clipPath id="SVGID_2_">
		<use xlink:href="#SVGID_1_"  style="overflow:visible;"/>
	</clipPath>
	<path class="st0" d="M8.3,28.7c0,0,2.6,0,3-0.7c0.4-0.7,0.6-1.7,0.6-1.7s4.3-3,6.2,0c0,0,3.5,6.6-7,13.7c0,0-10.5-0.7-10.4-9.7
		c0,0-1.1-4.2,2.6-5.3c3.8-1.1,2.9,1,2.9,1S7.3,28.8,8.3,28.7"/>
	<path class="st1" d="M18.5,4.3c0,0,9.4-8.9,14.8-1.2L38,8.5l-1.4,1.8l-8.3-1.7l-3,0.2L18.5,4.3z"/>
	<path class="st0" d="M22.3,32.6c0,0,1-2.3,3-1.7l3.3,0.4c0,0,2.2,0.4,2.9-0.7c0.7-1,2.9-1.6,3.5-1.5c0.5,0.1,4.5-0.9,4.1,6.4
		s-5.8,8-5.8,8S22.1,42.9,22.3,32.6"/>
	<path class="st2" d="M18.5,6.3c-0.1,0.2,0,0.3,0.1,0.4c0.3,0.5,0.7,0.9,1.1,1.3c0.7,0.8,1.4,1.6,2.1,2.5c0.5,0.6,1,1.2,1.5,1.7
		c0.1,0.1,0.2,0.3,0.3,0.4c0.8,0.9,1.6,1.9,2.4,2.8c0.2,0.2,0.4,0.5,0.5,0.8c0.3,0.5,0.6,1,1,1.5c0.4,0.5,0.6,1.2,0.9,1.7
		c0,0,0,0.1,0.1,0.1c0.4,0.4,0.6,0.9,0.8,1.3c0.3,0.5,0.5,1.1,0.7,1.6c0.2,0.4,0.1,0.9,0.4,1.2c0,0,0,0.1,0,0.1
		c0.1,0.6,0.3,1.1,0.5,1.7c0.2,0.4,0.1,0.8,0.2,1.2c0,0.1,0,0.1,0,0.2c0.1,0.2,0.2,0.3,0.4,0.2c0.4-0.1,0.7-0.3,1.1-0.4
		c0.4-0.2,0.8-0.3,1.2-0.2c0.3,0,0.7,0,1.1,0c0.7,0.1,1.4,0.3,2,0.7c0.6,0.4,1.1,0.8,1.5,1.4c0.3,0.4,0.4,0.9,0.6,1.3
		c0.1,0.4,0.3,0.8,0.4,1.2c0.1,0.5,0.3,0.9,0.2,1.4c0,0.2,0,0.4,0.1,0.6c0.1,0.5,0.1,1,0.1,1.5c0,0.1,0,0.1,0,0.2
		c-0.4,0.6-0.4,1.3-0.6,1.9c-0.2,0.5-0.5,1-0.5,1.5c-0.3,0.4-0.3,0.9-0.5,1.3c-0.4,0.5-0.7,1-1.1,1.4c-0.3,0.3-0.6,0.7-0.9,1.1
		c-0.6,0.7-1.3,1.3-2.2,1.4c-0.3,0-0.6,0.1-0.9,0.2c-0.3,0.1-0.7,0.1-1,0.1c-1-0.3-2.1-0.4-3-0.9c-0.6-0.3-1.1-0.6-1.7-0.9
		c-0.4-0.2-0.7-0.5-0.9-0.8c-0.2-0.2-0.4-0.5-0.7-0.6c0,0-0.1-0.1-0.1-0.1c-0.3-0.5-0.8-1-1-1.7c-0.1-0.3-0.3-0.6-0.5-0.9
		c-0.2-0.3-0.2-0.8-0.4-1.1c-0.1-0.1-0.1-0.3-0.1-0.4c-0.2-0.3-0.2-0.7-0.3-1.1c-0.1-0.6-0.2-1.2-0.3-1.9c-0.1-0.5-0.2-1-0.2-1.5
		c0-0.2-0.1-0.5-0.1-0.7c-0.1-0.4,0-0.8,0.3-1.1c0.2-0.3,0.5-0.6,0.7-0.9c0.3-0.3,0.7-0.6,1.2-0.7c0.6-0.2,1.3-0.3,2-0.4
		c0.5-0.1,1-0.2,1.5-0.1c0.1,0,0.3,0,0.4,0c0.2-0.1,0.3-0.2,0.4-0.4c0.1-0.6,0.1-1.1,0-1.7c0-0.6-0.2-1.1-0.3-1.7
		c0-0.2-0.1-0.4-0.2-0.6c-0.2-0.6-0.4-1.3-0.8-1.8c-0.1-0.2-0.1-0.5-0.2-0.7c-0.3-0.5-0.4-1.1-0.8-1.5c-0.2-0.2-0.2-0.5-0.4-0.7
		c-0.1-0.2-0.2-0.5-0.5-0.7c-0.2-0.1-0.3-0.3-0.4-0.5c-0.2-0.6-0.6-1.1-0.9-1.6c-0.2-0.4-0.4-0.8-0.8-1c-0.3-0.2-0.6-0.5-0.9-0.8
		c-0.3-0.4-0.7-0.7-1-1.1c-0.1-0.1-0.3-0.2-0.4-0.3c-0.2-0.2-0.4-0.4-0.5-0.6c-0.2-0.3-0.4-0.5-0.7-0.8c-0.3-0.3-0.5-0.7-0.7-1
		c-0.2-0.4-0.6-0.8-0.9-1.2c-0.5-0.5-1-1.1-1.4-1.7c0,0-0.1-0.1-0.1-0.1c-0.1-0.1-0.2-0.3-0.3-0.2c-0.2,0.1-0.1,0.2-0.1,0.4
		c0,0.3,0,0.7,0,1c0,0.5,0.1,1.1,0.1,1.6c0,0.5-0.1,1.1-0.1,1.6c-0.1,0.9-0.5,1.8-0.8,2.7c-0.3,0.7-0.7,1.4-1,2.1
		c-0.2,0.5-0.5,1-0.7,1.5c-0.3,0.8-0.7,1.6-1.1,2.4c-0.4,0.7-0.7,1.4-1,2.2c-0.1,0.2-0.3,0.5-0.4,0.7c-0.3,0.6-0.7,1-1.1,1.5
		c-0.1,0.1-0.2,0.2-0.1,0.4c0.1,0.2,0.2,0.1,0.4,0.1c0.2,0,0.4,0,0.6-0.1c0.6-0.2,1.3-0.4,1.9-0.6c0.4-0.2,0.9-0.3,1.3-0.4
		c0.6-0.1,1.2-0.1,1.7-0.1c0.1,0,0.1,0,0.2,0c0.5,0.3,1,0.6,1.2,1.2c0.1,0.2,0.3,0.4,0.4,0.6c0.3,0.4,0.4,0.8,0.6,1.3
		c0.2,0.5,0.3,1,0.1,1.6c0,0.1-0.1,0.2,0,0.3c0.1,0.5-0.1,1-0.2,1.5c-0.1,0.5-0.3,0.9-0.5,1.4c-0.1,0.2-0.2,0.5-0.4,0.8
		c-0.2,0.3-0.3,0.6-0.6,0.9c-0.2,0.2-0.3,0.5-0.4,0.7c-0.2,0.5-0.6,0.9-0.9,1.4c-0.4,0.6-0.8,1.1-1.3,1.7c-0.3,0.3-0.6,0.6-0.8,1
		c-0.2,0.2-0.4,0.4-0.7,0.5c-0.6,0.2-1.1,0.5-1.7,0.8c-0.2,0.1-0.5,0.1-0.7,0.2c-0.5,0.2-0.9,0.3-1.4,0.4c-0.7,0.1-1.4,0.1-2.1-0.3
		c-0.3-0.1-0.6-0.2-0.9-0.3c-0.5-0.1-0.9-0.4-1.4-0.5c-0.3-0.1-0.6-0.3-0.9-0.5c-0.3-0.2-0.5-0.4-0.8-0.5C2.8,38,2.4,37.3,2,36.7
		c-0.1-0.2-0.2-0.4-0.4-0.5c-0.2-0.2-0.2-0.4-0.2-0.6c-0.1-0.3-0.2-0.6-0.3-0.8c0-0.1-0.1-0.1-0.1-0.2c0-0.4-0.3-0.7-0.2-1.1
		c0-0.1-0.1-0.3-0.1-0.4c-0.2-0.6-0.3-1.1-0.5-1.7c-0.1-0.3-0.1-0.6-0.1-0.8c0-0.8,0-1.6-0.1-2.3c-0.1-0.5,0.1-0.9,0.3-1.3
		c0,0,0.1-0.1,0.1-0.1c0.2-0.5,0.6-0.9,1-1.3c0.3-0.3,0.6-0.7,0.9-1c0.3-0.3,0.6-0.7,0.9-1c0.1-0.1,0.2-0.1,0.3-0.1
		c0.6-0.2,1.1-0.3,1.7-0.5c0.4-0.1,0.8,0,1.2,0.2c0.4,0.2,0.7,0.3,1.1,0.4c0.4,0.2,0.7,0.4,1,0.7c0.2,0.3,0.5,0.5,0.7,0.8
		c0.1,0.2,0.4,0.2,0.5-0.1c0.3-0.6,0.6-1.2,0.9-1.8c0.3-0.6,0.6-1.1,0.9-1.7c0.2-0.5,0.5-0.9,0.7-1.4c0.1-0.2,0.2-0.3,0.3-0.5
		c0.3-0.3,0.6-0.7,0.8-1.2c0.2-0.5,0.5-1,0.7-1.6c0.1-0.3,0.2-0.5,0.4-0.7c0.2-0.3,0.2-0.7,0.4-1.1c0.1-0.3,0.1-0.7,0.3-1.1
		c0.1-0.2,0.2-0.4,0.1-0.6c0-0.1,0-0.1,0-0.2c0.3-0.5,0.1-1,0.3-1.5c0.1-0.2,0-0.5,0-0.7c0-0.4,0-0.9,0-1.3c0-0.4,0-0.9-0.1-1.3
		c-0.1-0.2-0.1-0.5-0.1-0.7c0-0.1,0-0.3-0.1-0.4c-0.4-0.5-0.5-1.1-0.8-1.7c-0.1-0.2,0-0.4,0.1-0.6c0.1-0.2,0.3-0.3,0.5-0.4
		c0.2-0.1,0.4-0.2,0.6-0.4c0.4-0.2,0.7-0.2,0.9,0.3c0.2,0.3,0.4,0.6,0.8,0.8c0.1,0.1,0.2,0.1,0.4,0c0.3-0.3,0.6-0.6,0.8-1
		c0.2-0.4,0.5-0.7,0.8-0.9c1-0.7,2.1-1.1,3-1.9c0.3-0.3,0.7-0.4,1.1-0.5c0.6-0.2,1.2-0.3,1.7-0.5c0.1,0,0.2-0.1,0.4-0.1
		c0.6,0,1.2-0.1,1.8,0c0.4,0,0.8,0.1,1.2,0.4c0.3,0.2,0.6,0.2,0.8,0.2c0.2,0,0.3,0.1,0.5,0.1c0.4,0.3,0.8,0.6,1.4,0.6
		c0.1,0,0.2,0.1,0.3,0.1c0.7,0.4,1.3,0.8,1.8,1.3c0.3,0.4,0.7,0.7,1,1.1c0.2,0.3,0.5,0.6,0.7,0.9c0.3,0.5,0.7,0.9,1.1,1.3
		c0.2,0.3,0.4,0.6,0.6,0.8c0.4,0.4,0.8,0.9,1.2,1.3c0.2,0.2,0.3,0.5,0.1,0.8c-0.3,0.7-0.9,1-1.5,1c-0.4,0-0.8-0.1-1.3-0.2
		c-0.1,0-0.2,0-0.3-0.1c-0.6-0.3-1.1-0.5-1.8-0.6c-0.7-0.1-1.4,0.1-2.1,0.3c-0.4,0.1-0.7,0.3-1.1,0.4c-0.1,0.1-0.2,0.1-0.3,0.1
		c-0.7,0.1-1.3,0.3-2,0.2c-0.6-0.1-1.2-0.1-1.8-0.2c-0.6-0.1-1.1-0.4-1.6-0.8c-0.1,0-0.1-0.1-0.2-0.1c-0.6-0.3-1-0.8-1.5-1.3
		c-0.2-0.2-0.4-0.4-0.7-0.5c-0.2-0.1-0.4-0.3-0.6-0.4c-0.5-0.6-1.2-0.7-1.9-0.8C19.1,6.3,18.8,6.2,18.5,6.3 M9.7,39.1
		c0.4,0,0.9-0.1,1.3-0.2c0.4-0.1,0.8-0.3,1.2-0.4c1-0.3,1.8-0.9,2.5-1.8c0.3-0.4,0.5-0.8,0.8-1.1c0.2-0.2,0.3-0.4,0.4-0.6
		c0.5-0.9,1-1.9,1.4-2.8c0.3-0.7,0.7-1.4,0.8-2.2c0-0.2,0-0.4,0-0.6c0.1-0.6,0.1-1.1-0.1-1.7c-0.2-0.8-0.6-1.5-1.2-2
		c-0.3-0.2-0.6-0.4-0.9-0.4c-0.5,0-1.1,0-1.6,0.2c-0.4,0.1-0.8,0.3-1.2,0.4c-0.6,0.2-1.3,0.4-1.9,0.6c-0.3,0.1-0.3,0.1-0.3,0.4
		c0,0.3,0,0.5-0.4,0.6c-0.1,0.1-0.3,0.1-0.4,0.1c-0.8,0.3-1.6,0.3-2.3-0.4c-0.2-0.3-0.3-0.5,0-0.8C8,26.4,8,26.4,8.1,26.3
		c0.2-0.1,0.2-0.3,0.1-0.5c-0.2-0.4-0.5-0.8-1-1.1c-0.5-0.3-1-0.5-1.5-0.7c-0.1,0-0.2-0.1-0.3-0.1C5,23.8,4.7,24,4.3,24.1
		c-0.6,0.1-1,0.3-1.4,0.8c-0.1,0.1-0.2,0.2-0.3,0.3c-0.2,0.2-0.3,0.3-0.3,0.6c0,0.3-0.1,0.5-0.4,0.6c-0.5,0.2-0.7,0.7-0.8,1.3
		c-0.1,0.6,0,1.2,0,1.8c0,0.1,0,0.2,0,0.3c0.1,0.5,0.1,1.1,0.4,1.5c0.1,0.2,0.2,0.5,0.2,0.8c0,0.4,0.1,0.7,0.2,1
		c0.1,0.3,0.3,0.6,0.3,1c0,0,0.1,0.1,0.1,0.1c0.1,0.5,0.6,0.9,0.8,1.4c0.1,0.3,0.3,0.5,0.5,0.7C3.7,36.8,4,37,4.2,37.2
		c0,0,0.1,0.1,0.1,0.1c0.5,0.2,0.9,0.5,1.4,0.6c0.6,0.2,1.2,0.4,1.8,0.7C8.3,39,9,39.1,9.7,39.1 M24.3,34.3c0,0.1,0,0.2,0,0.3
		c0.2,0.7,0.3,1.4,0.6,2c0.3,0.7,0.5,1.4,0.9,2c0.2,0.3,0.3,0.5,0.5,0.8c0.3,0.4,0.7,0.7,1.1,1c0.3,0.2,0.6,0.5,0.9,0.6
		c0.3,0.1,0.6,0.3,0.9,0.5c0.5,0.3,1,0.5,1.6,0.6c0.5,0.1,1,0.2,1.5,0.4c0.3,0.1,0.5,0.1,0.8,0.1c0.5,0,0.9-0.2,1.4-0.4
		c0.3-0.1,0.6-0.2,0.8-0.5c0.5-0.5,1-1,1.4-1.6c0.3-0.4,0.6-0.8,0.8-1.3c0.1-0.3,0.2-0.7,0.4-1c0.1-0.1,0.1-0.3,0.2-0.4
		c0.2-0.8,0.4-1.6,0.6-2.4c0.1-0.2,0.1-0.5,0.1-0.7c0-0.3-0.1-0.7,0-1c0.1-0.6-0.1-1.2-0.2-1.8c-0.1-0.5-0.4-0.8-0.5-1.3
		c-0.1-0.3-0.1-0.6-0.3-0.8c-0.4-0.6-1-1.1-1.6-1.5c-0.2-0.1-0.4-0.2-0.6-0.3c-1.2-0.3-2.3-0.2-3.3,0.4c-0.1,0.1-0.2,0.2-0.3,0.3
		c-0.1,0.6-0.4,0.9-0.9,1.2c-0.2,0.1-0.4,0.1-0.7,0.2c-0.4,0.1-0.7,0-1-0.3c-0.1-0.1-0.3-0.2-0.5-0.2c-0.8,0-1.7,0.1-2.5,0.1
		c0,0-0.1,0-0.1,0c-0.3,0.1-0.6,0.2-1,0.2c-0.3,0-0.7,0.2-0.8,0.5c-0.3,0.4-0.5,1-0.5,1.5c0,0.3,0.1,0.7,0,1c0,0.4,0.1,0.7,0.2,1.1
		C24.3,33.9,24.3,34.1,24.3,34.3 M26.2,1.3c-0.4,0-0.7,0-1.1,0.2c-0.7,0.3-1.6,0.4-2.3,0.8c-0.3,0.2-0.6,0.4-0.9,0.6
		c-0.2,0.1-0.3,0.2-0.5,0.3c-0.1,0-0.1,0.1-0.1,0.2c0,0.1,0.1,0.1,0.1,0.1c0.3,0,0.6,0,0.9,0c0.6-0.1,1.1-0.1,1.7,0.1
		c0.1,0.1,0.3,0.1,0.4-0.1c0.3-0.3,0.7-0.6,1.1-0.8c0.2-0.2,0.5-0.3,0.8-0.4c0.2-0.1,0.3,0,0.5,0c0.1,0,0.2,0.1,0.2,0.3
		c0,0.3-0.2,0.4-0.4,0.5c-0.4,0.2-0.6,0.5-1,0.6c-0.1,0-0.2,0.1-0.1,0.2C25.6,4,25.7,4,25.8,4c0.2,0,0.5,0,0.6,0.2
		c0.1,0.1,0.2,0.1,0.2,0.2C27,4.6,27,4.6,27.2,4.2c0-0.1,0.1-0.1,0.1-0.2c0.4-0.5,1-0.8,1.5-1.1c0.4-0.2,0.6,0,0.6,0.4
		c0,0.1,0,0.2,0,0.3c0,0.1,0,0.2-0.2,0.2c-0.1,0-0.2,0-0.4,0.1c-0.2,0.2-0.5,0.4-0.8,0.5c-0.1,0.1-0.2,0.1-0.2,0.2
		c0,0.1-0.1,0.1,0,0.2c0.3,0.1,0.5,0.3,0.8,0.1c0.1-0.1,0.3-0.1,0.4,0c0.2,0.1,0.3,0.1,0.4-0.1c0.3-0.4,0.7-0.8,1.1-1
		c0.2-0.1,0.5-0.1,0.6,0c0.2,0.1,0.1,0.4,0,0.6c-0.1,0.1-0.1,0.1-0.2,0.2c-0.2,0.1-0.3,0.3-0.5,0.4c-0.1,0.1-0.2,0.2-0.1,0.4
		c0.1,0.2,0.2,0.1,0.4,0.1c0.1,0,0.3-0.1,0.4-0.1c0.2,0,0.4,0,0.6,0.2c0.2,0.2,0.3,0.4,0.4,0.7c0.1,0.2,0.1,0.3-0.1,0.5
		c-0.1,0.1-0.3,0.1-0.4,0c-0.4-0.2-0.9-0.3-1.4-0.4c-0.5-0.1-0.5-0.1-0.5,0.4c0,0.3,0,0.5-0.2,0.5c-0.2,0.1-0.4-0.1-0.5-0.2
		c0,0-0.1-0.1-0.1-0.1c-0.2-0.2-0.3-0.5-0.4-0.7c-0.1-0.3-0.3-0.4-0.6-0.4c-0.2,0-0.4,0-0.6-0.1c-0.2,0-0.3,0-0.2,0.2
		c0,0.2,0,0.3,0.1,0.5c0,0.3-0.2,0.4-0.4,0.3c-0.3-0.2-0.6-0.4-0.7-0.7c-0.1-0.4-0.3-0.6-0.6-0.8c-0.7-0.4-1.4-0.7-2.2-0.8
		c-0.7-0.1-1.4,0-2.1,0.1c-0.4,0.1-0.8,0.3-1.2,0.5C20.1,5.1,20,5.1,20,5.3c0,0.1,0.1,0.2,0.2,0.2c0.3,0,0.5,0.2,0.8,0.3
		C21.5,6,22,6.2,22.3,6.5C22.8,7,23.4,7.4,24,7.9c0.4,0.3,0.9,0.6,1.2,0.9c0.7,0.6,1.5,0.7,2.3,0.8c0.5,0,1.1,0,1.6,0
		c0.1,0,0.2,0,0.3-0.1c0.2-0.1,0.5-0.3,0.7-0.3c0.3,0,0.5-0.1,0.7-0.3c0.6-0.3,1.1-0.4,1.7-0.5c0.4,0,0.8,0,1.2,0
		c0.7,0,1.4,0.2,2,0.5c0.3,0.1,0.5,0.3,0.8,0.3c0.1,0,0.2,0,0.3-0.2C37,9,37,8.9,36.9,8.9c-0.2-0.2-0.3-0.4-0.6-0.6
		c-0.3-0.2-0.4-0.5-0.6-0.8c-0.3-0.4-0.7-0.8-1-1.2c-0.3-0.3-0.6-0.6-0.8-0.9c-0.2-0.4-0.5-0.7-0.8-1c-0.1-0.1-0.3-0.3-0.4-0.4
		c-0.3-0.5-0.8-0.8-1.4-1.1c-0.5-0.2-1.1-0.4-1.6-0.7c-0.5-0.2-1-0.4-1.5-0.6C27.5,1.3,26.8,1.4,26.2,1.3"/>
</g>
</svg>
